  <svg
    width="20"
    height="20"
    viewBox="0 0 20 20"
    fill="none"
    xmlns="http://www.w3.org/2000/svg"
  >
    <path
      fill-rule="evenodd"
      clip-rule="evenodd"
      d="M6.07301 7.48686C5.72782 7.85708 5.50781 8.41011 5.50781 9.11783V12.4243C5.50781 13.1329 5.72706 13.6858 6.07147 14.0557C6.41119 14.4205 6.91868 14.6575 7.60227 14.6575H12.3974C13.082 14.6575 13.5896 14.4204 13.9292 14.0557C14.2735 13.6859 14.4927 13.133 14.4927 12.4243V9.11783C14.4927 8.40921 14.2735 7.8563 13.9293 7.48651C13.5897 7.12178 13.0823 6.88477 12.3982 6.88477H7.60227C6.92151 6.88477 6.41368 7.12149 6.07301 7.48686ZM5.15876 6.63442C5.76005 5.98953 6.61195 5.63477 7.60227 5.63477H12.3982C13.3909 5.63477 14.2432 5.98924 14.8442 6.63477C15.4404 7.27524 15.7427 8.15136 15.7427 9.11783V12.4243C15.7427 13.3908 15.4404 14.267 14.844 14.9075C14.2429 15.5531 13.3904 15.9075 12.3974 15.9075H7.60227C6.60991 15.9075 5.75768 15.553 5.15666 14.9075C4.56032 14.2671 4.25781 13.391 4.25781 12.4243V9.11783C4.25781 8.15046 4.56199 7.27446 5.15876 6.63442Z"
      fill="#1F2937"
    />
    <path
      fill-rule="evenodd"
      clip-rule="evenodd"
      d="M8.29927 11.8527C8.43749 11.5364 8.80594 11.392 9.12224 11.5302C9.71427 11.7889 10.2845 11.7889 10.8766 11.5302C11.1929 11.392 11.5613 11.5364 11.6995 11.8527C11.8377 12.169 11.6934 12.5374 11.3771 12.6757C10.4659 13.0738 9.53287 13.0738 8.62173 12.6757C8.30543 12.5374 8.16106 12.169 8.29927 11.8527Z"
      fill="#1F2937"
    />
    <path
      fill-rule="evenodd"
      clip-rule="evenodd"
      d="M11.8391 8.54175C12.1843 8.54175 12.4641 8.82157 12.4641 9.16675V9.17508C12.4641 9.52026 12.1843 9.80008 11.8391 9.80008C11.4939 9.80008 11.2141 9.52026 11.2141 9.17508V9.16675C11.2141 8.82157 11.4939 8.54175 11.8391 8.54175Z"
      fill="#1F2937"
    />
    <path
      fill-rule="evenodd"
      clip-rule="evenodd"
      d="M8.16089 8.54175C8.50607 8.54175 8.78589 8.82157 8.78589 9.16675V9.17508C8.78589 9.52026 8.50607 9.80008 8.16089 9.80008C7.81571 9.80008 7.53589 9.52026 7.53589 9.17508V9.16675C7.53589 8.82157 7.81571 8.54175 8.16089 8.54175Z"
      fill="#1F2937"
    />
    <path
      fill-rule="evenodd"
      clip-rule="evenodd"
      d="M2.53174 10.6959C2.53174 9.50547 3.49713 8.54175 4.68674 8.54175H4.88296C5.22813 8.54175 5.50796 8.82157 5.50796 9.16675C5.50796 9.51193 5.22813 9.79175 4.88296 9.79175H4.68674C4.18661 9.79175 3.78174 10.1967 3.78174 10.6959C3.78174 11.1956 4.18704 11.6009 4.68674 11.6009H4.88296C5.22813 11.6009 5.50796 11.8807 5.50796 12.2259C5.50796 12.5711 5.22813 12.8509 4.88296 12.8509H4.68674C3.49671 12.8509 2.53174 11.886 2.53174 10.6959Z"
      fill="#1F2937"
    />
    <path
      fill-rule="evenodd"
      clip-rule="evenodd"
      d="M14.4922 9.16675C14.4922 8.82157 14.772 8.54175 15.1172 8.54175H15.3143C16.5043 8.54175 17.4684 9.5059 17.4684 10.6959C17.4684 11.8856 16.5047 12.8509 15.3143 12.8509H15.1172C14.772 12.8509 14.4922 12.5711 14.4922 12.2259C14.4922 11.8807 14.772 11.6009 15.1172 11.6009H15.3143C15.8135 11.6009 16.2184 11.1961 16.2184 10.6959C16.2184 10.1963 15.8139 9.79175 15.3143 9.79175H15.1172C14.772 9.79175 14.4922 9.51193 14.4922 9.16675Z"
      fill="#1F2937"
    />
    <path
      fill-rule="evenodd"
      clip-rule="evenodd"
      d="M8.34644 3.52892C8.34644 2.61535 9.08686 1.875 10.0004 1.875C10.914 1.875 11.6543 2.61538 11.6543 3.52892C11.6543 4.44237 10.9141 5.18291 10.0004 5.18291C9.08683 5.18291 8.34644 4.44247 8.34644 3.52892ZM10.0004 3.125C9.77718 3.125 9.59644 3.30574 9.59644 3.52892C9.59644 3.75213 9.7772 3.93291 10.0004 3.93291C10.2235 3.93291 10.4043 3.75223 10.4043 3.52892C10.4043 3.3057 10.2236 3.125 10.0004 3.125Z"
      fill="#1F2937"
    />
    <path
      fill-rule="evenodd"
      clip-rule="evenodd"
      d="M10 3.93237C10.3452 3.93237 10.625 4.2122 10.625 4.55737V6.25846C10.625 6.60363 10.3452 6.88346 10 6.88346C9.65482 6.88346 9.375 6.60363 9.375 6.25846V4.55737C9.375 4.2122 9.65482 3.93237 10 3.93237Z"
      fill="#1F2937"
    />
    <path
      fill-rule="evenodd"
      clip-rule="evenodd"
      d="M6.59009 17.5C6.59009 17.1548 6.86991 16.875 7.21509 16.875H12.7862C13.1313 16.875 13.4112 17.1548 13.4112 17.5C13.4112 17.8452 13.1313 18.125 12.7862 18.125H7.21509C6.86991 18.125 6.59009 17.8452 6.59009 17.5Z"
      fill="#1F2937"
    />
  </svg>